# xmcd CD database file
#
# Track frame offsets:
#	150
#	21197
#	48565
#	69825
#	96645
#	123630
#	145827
#	151247
#	185075
#
# Disc length: 2847 seconds
#
# Revision: 0
# Processed by: cddbd v1.5.2PL0 Copyright (c) Steve Scherf et al.
# Submitted via: CDex 1.60beta1
#
DISCID=800b1d09
DTITLE=Akiko - Mood Swings
DYEAR=2003
DGENRE=Jazz
TTITLE0=Old Devil Moon
TTITLE1=Mood Swings
TTITLE2=Overstay
TTITLE3=Footprints On The Moon
TTITLE4=Before Dawn
TTITLE5=The Gift
TTITLE6=Belgrade
TTITLE7=Old Fisherman's Daughter
TTITLE8=Sophisticated Lady
EXTD=YEAR: 2003
EXTT0=
EXTT1=
EXTT2=
EXTT3=
EXTT4=
EXTT5=
EXTT6=
EXTT7=
EXTT8=
PLAYORDER=
